<?xml version="1.0" encoding="utf-8"?>
<!-- Generator: Adobe Illustrator 26.5.0, SVG Export Plug-In . SVG Version: 6.00 Build 0)  -->
<svg version="1.1" id="Layer_1" xmlns="http://www.w3.org/2000/svg" xmlns:xlink="http://www.w3.org/1999/xlink" x="0px" y="0px"
	 viewBox="0 0 500 500" style="enable-background:new 0 0 500 500;" xml:space="preserve">
<style type="text/css">
	.st0{fill-rule:evenodd;clip-rule:evenodd;fill:#474646;}
	.st1{fill:#F26B37;}
</style>
<g>
	<path class="st0" d="M227.3,206.3c0-2.1-1.7-3.8-3.7-3.8l-8.7,0v1.9l7.7,0c1.9,0,2.8,0.9,2.8,2.8v1.2c-0.7-0.6-1.6-1-2.6-1
		c-1.4,0-2.8,0-4.2,0c-2.1,0-3.7,1.7-3.7,3.7v2.5c0,2.1,1.7,3.7,3.7,3.7c1.4,0,2.8,0,4.2,0c1,0,1.9-0.4,2.6-1v1h2V206.3L227.3,206.3
		z M222.3,209.3c1.3,0,2.3,1,2.3,2.3v1.7c0,1.3-1,2.3-2.3,2.3c-1.1,0-2.1,0-3.2,0c-1.3,0-2.3-1-2.3-2.3v-1.7c0-1.3,1-2.3,2.3-2.3
		C220.2,209.3,221.2,209.3,222.3,209.3z"/>
	<path class="st0" d="M212.7,215.5h-3c-1.6,0-2.6-1.3-2.6-2.8v-8.2h5.7v-1.9H207v-2.9h-2v2.9h-2.3v1.9h2.3v9.2
		c0,2.1,1.7,3.7,3.7,3.7h4V215.5z"/>
	<path class="st0" d="M200.5,215.5h-3c-1.6,0-2.6-1.3-2.6-2.8v-8.2h5.7v-1.9h-5.7v-2.9h-2v2.9h-2.3v1.9h2.3v9.2
		c0,2.1,1.7,3.7,3.7,3.7h4V215.5z"/>
	<rect x="186.3" y="202.6" class="st0" width="2" height="14.8"/>
	<path class="st0" d="M180.4,217.4c2.1,0,3.7-1.7,3.7-3.8v-0.9c0-2-1.6-3.6-3.6-3.6h-4.3c-1.7,0-2.5-0.7-2.5-2c0-0.2,0-0.5,0-0.7
		c0-1.2,1.1-2,2.7-2h7.7c0-0.7,0-1.1,0-1.9h-8.6c-2,0-3.8,1.5-3.8,3.4c0,0.2,0,1.2,0,1.3c0,2,1.6,3.5,3.6,3.5h3.6
		c2.3,0,3.2,0.9,3.2,2.2v0.1c0,1.4-0.9,2.4-2.7,2.4l-11.7,0c0,0.3,0,1.6,0,1.9L180.4,217.4z"/>
	<path class="st0" d="M240.8,208.2l5.1-5.7h-3.1l-3.5,3.9L240.8,208.2L240.8,208.2z M237.7,211.7l-5.1,5.7h-3.1l6.6-7.4l-6.6-7.4
		h3.1c4.4,4.9,8.9,9.8,13.3,14.8h-3.1L237.7,211.7z"/>
</g>
<path class="st0" d="M141.7,257.2c-12.4-16.3-12.4-39,0-55.2l13.2,13.2c-5.5,8.8-5.5,20,0,28.8L141.7,257.2z"/>
<g>
	<path class="st1" d="M181.8,248.5c0-2.4-0.3-4.2-0.9-5.2c-0.6-1-1.7-1.5-3.2-1.5c-0.5,0-1,0-1.5,0.1c-0.5,0.1-1,0.1-1.5,0.2v20.6
		h-7.6v-25.8c0.6-0.2,1.4-0.3,2.3-0.5c0.9-0.2,1.8-0.4,2.7-0.5c1-0.2,2-0.3,3-0.4c1-0.1,2-0.1,3-0.1c1.9,0,3.5,0.2,4.7,0.7
		c1.2,0.5,2.2,1.1,3,1.8c1.1-0.8,2.3-1.4,3.7-1.8c1.4-0.4,2.7-0.7,3.9-0.7c2.1,0,3.9,0.3,5.3,0.9c1.4,0.6,2.5,1.4,3.3,2.5
		c0.8,1.1,1.4,2.4,1.7,3.9c0.3,1.5,0.5,3.2,0.5,5v15.1h-7.6v-14.2c0-2.4-0.3-4.2-0.9-5.2c-0.6-1-1.7-1.5-3.2-1.5
		c-0.4,0-1,0.1-1.7,0.3c-0.7,0.2-1.3,0.5-1.8,0.8c0.2,0.8,0.4,1.6,0.5,2.5c0.1,0.9,0.1,1.8,0.1,2.8v14.6h-7.6V248.5z"/>
	<path class="st1" d="M236,249.2c0,2.1-0.3,4-0.9,5.8c-0.6,1.7-1.5,3.2-2.6,4.5c-1.2,1.2-2.5,2.2-4.1,2.9c-1.6,0.7-3.4,1-5.4,1
		c-2,0-3.8-0.3-5.4-1c-1.6-0.7-3-1.6-4.1-2.9c-1.2-1.2-2.1-2.7-2.7-4.5c-0.6-1.7-1-3.7-1-5.8c0-2.1,0.3-4,1-5.7
		c0.7-1.7,1.6-3.2,2.7-4.4c1.2-1.2,2.6-2.2,4.2-2.8c1.6-0.7,3.4-1,5.3-1c1.9,0,3.7,0.3,5.3,1c1.6,0.7,3,1.6,4.1,2.8
		c1.2,1.2,2.1,2.7,2.7,4.4C235.7,245.2,236,247.1,236,249.2z M228.3,249.2c0-2.3-0.5-4.2-1.4-5.5c-0.9-1.3-2.3-2-4-2
		c-1.7,0-3.1,0.7-4,2c-0.9,1.3-1.4,3.2-1.4,5.5c0,2.3,0.5,4.2,1.4,5.6c0.9,1.4,2.3,2.1,4,2.1c1.7,0,3.1-0.7,4-2.1
		C227.8,253.4,228.3,251.6,228.3,249.2z"/>
	<path class="st1" d="M241.9,236.8c1.3-0.4,2.9-0.7,5-1c2-0.3,4.2-0.5,6.4-0.5c2.3,0,4.2,0.3,5.7,0.9c1.5,0.6,2.7,1.4,3.6,2.5
		c0.9,1.1,1.5,2.4,1.9,3.9c0.4,1.5,0.6,3.2,0.6,5v15.1h-7.6v-14.2c0-2.4-0.3-4.2-1-5.2c-0.6-1-1.8-1.5-3.6-1.5c-0.5,0-1.1,0-1.7,0.1
		c-0.6,0.1-1.2,0.1-1.6,0.2v20.6h-7.6V236.8z"/>
	<path class="st1" d="M280.1,228.2c0,1.4-0.5,2.5-1.3,3.3c-0.9,0.8-2,1.2-3.2,1.2s-2.3-0.4-3.2-1.2c-0.9-0.8-1.3-1.9-1.3-3.3
		c0-1.4,0.4-2.5,1.3-3.3c0.9-0.8,2-1.2,3.2-1.2s2.3,0.4,3.2,1.2C279.6,225.7,280.1,226.8,280.1,228.2z M279.4,262.6h-7.6v-26.8h7.6
		V262.6z"/>
	<path class="st1" d="M286.3,229.2l7.6-1.2v7.9h9.1v6.3h-9.1v9.4c0,1.6,0.3,2.9,0.8,3.8c0.6,1,1.7,1.4,3.4,1.4
		c0.8,0,1.7-0.1,2.5-0.2c0.9-0.2,1.7-0.4,2.4-0.6l1.1,5.9c-0.9,0.4-1.9,0.7-3.1,1c-1.1,0.3-2.5,0.4-4.1,0.4c-2.1,0-3.8-0.3-5.1-0.8
		c-1.4-0.6-2.4-1.3-3.3-2.3c-0.8-1-1.4-2.2-1.7-3.6c-0.3-1.4-0.5-3-0.5-4.7V229.2z"/>
	<path class="st1" d="M333.1,249.2c0,2.1-0.3,4-0.9,5.8c-0.6,1.7-1.5,3.2-2.6,4.5c-1.2,1.2-2.5,2.2-4.1,2.9c-1.6,0.7-3.4,1-5.4,1
		c-2,0-3.8-0.3-5.4-1s-3-1.6-4.1-2.9c-1.2-1.2-2.1-2.7-2.7-4.5c-0.6-1.7-1-3.7-1-5.8c0-2.1,0.3-4,1-5.7c0.7-1.7,1.6-3.2,2.7-4.4
		s2.6-2.2,4.2-2.8c1.6-0.7,3.4-1,5.3-1c1.9,0,3.7,0.3,5.3,1c1.6,0.7,3,1.6,4.1,2.8s2.1,2.7,2.7,4.4
		C332.8,245.2,333.1,247.1,333.1,249.2z M325.4,249.2c0-2.3-0.5-4.2-1.4-5.5c-0.9-1.3-2.3-2-4-2s-3.1,0.7-4,2
		c-1,1.3-1.4,3.2-1.4,5.5c0,2.3,0.5,4.2,1.4,5.6c0.9,1.4,2.3,2.1,4,2.1s3.1-0.7,4-2.1C324.9,253.4,325.4,251.6,325.4,249.2z"/>
	<path class="st1" d="M355.1,242.6c-0.7-0.2-1.5-0.3-2.4-0.5c-0.9-0.2-1.9-0.3-3-0.3c-0.5,0-1,0-1.7,0.1c-0.7,0.1-1.2,0.2-1.5,0.3
		v20.4h-7.6v-25.3c1.4-0.5,3-0.9,4.8-1.3c1.8-0.4,3.9-0.6,6.2-0.6c0.4,0,0.9,0,1.5,0.1c0.6,0.1,1.2,0.1,1.7,0.2
		c0.6,0.1,1.2,0.2,1.7,0.3c0.6,0.1,1.1,0.3,1.5,0.4L355.1,242.6z"/>
</g>
</svg>
